<svg xmlns="http://www.w3.org/2000/svg" width="980" height="560" viewBox="0 0 980 560"><title>BBox Area Ratio Distribution</title><rect x="0" y="0" width="980" height="560" fill="#fffdf7" stroke="none" rx="0" opacity="1.0"/><text x="100" y="36" font-size="24" fill="#14213d" font-family="Helvetica,Arial,sans-serif" text-anchor="start" font-weight="bold">BBox Area Ratio Distribution</text><line x1="100" y1="450.0" x2="940" y2="450.0" stroke="#e5e7eb" stroke-width="1"/><text x="88" y="455.0" font-size="12" fill="#6b7280" font-family="Helvetica,Arial,sans-serif" text-anchor="end" font-weight="normal">0</text><line x1="100" y1="355.0" x2="940" y2="355.0" stroke="#e5e7eb" stroke-width="1"/><text x="88" y="360.0" font-size="12" fill="#6b7280" font-family="Helvetica,Arial,sans-serif" text-anchor="end" font-weight="normal">234</text><line x1="100" y1="260.0" x2="940" y2="260.0" stroke="#e5e7eb" stroke-width="1"/><text x="88" y="265.0" font-size="12" fill="#6b7280" font-family="Helvetica,Arial,sans-serif" text-anchor="end" font-weight="normal">468</text><line x1="100" y1="165.0" x2="940" y2="165.0" stroke="#e5e7eb" stroke-width="1"/><text x="88" y="170.0" font-size="12" fill="#6b7280" font-family="Helvetica,Arial,sans-serif" text-anchor="end" font-weight="normal">701</text><line x1="100" y1="450" x2="940" y2="450" stroke="#14213d" stroke-width="1.5"/><rect x="135.7" y="70.0" width="138.6" height="380.0" fill="#d62828" stroke="none" rx="4" opacity="1.0"/><text x="205.0" y="62.0" font-size="12" fill="#14213d" font-family="Helvetica,Arial,sans-serif" text-anchor="middle" font-weight="normal">935</text><text x="205.0" y="472" font-size="12" fill="#14213d" font-family="Helvetica,Arial,sans-serif" text-anchor="end" transform="rotate(-28 205.0 472)">5-15%</text><rect x="345.7" y="363.8395721925134" width="138.6" height="86.16042780748663" fill="#d62828" stroke="none" rx="4" opacity="1.0"/><text x="415.0" y="355.8395721925134" font-size="12" fill="#14213d" font-family="Helvetica,Arial,sans-serif" text-anchor="middle" font-weight="normal">212</text><text x="415.0" y="472" font-size="12" fill="#14213d" font-family="Helvetica,Arial,sans-serif" text-anchor="end" transform="rotate(-28 415.0 472)">&lt;5%</text><rect x="555.7" y="88.28877005347596" width="138.6" height="361.71122994652404" fill="#d62828" stroke="none" rx="4" opacity="1.0"/><text x="625.0" y="80.28877005347596" font-size="12" fill="#14213d" font-family="Helvetica,Arial,sans-serif" text-anchor="middle" font-weight="normal">890</text><text x="625.0" y="472" font-size="12" fill="#14213d" font-family="Helvetica,Arial,sans-serif" text-anchor="end" transform="rotate(-28 625.0 472)">15-30%</text><rect x="765.7" y="263.048128342246" width="138.6" height="186.951871657754" fill="#d62828" stroke="none" rx="4" opacity="1.0"/><text x="835.0" y="255.048128342246" font-size="12" fill="#14213d" font-family="Helvetica,Arial,sans-serif" text-anchor="middle" font-weight="normal">460</text><text x="835.0" y="472" font-size="12" fill="#14213d" font-family="Helvetica,Arial,sans-serif" text-anchor="end" transform="rotate(-28 835.0 472)">&gt;30%</text><text x="490.0" y="542" font-size="13" fill="#6b7280" font-family="Helvetica,Arial,sans-serif" text-anchor="middle" font-weight="normal">Bin</text></svg>