<svg xmlns="http://www.w3.org/2000/svg" width="980" height="560" viewBox="0 0 980 560"><title>BBox Area Ratio Distribution</title><rect x="0" y="0" width="980" height="560" fill="#fffdf7" stroke="none" rx="0" opacity="1.0"/><text x="100" y="36" font-size="24" fill="#14213d" font-family="Helvetica,Arial,sans-serif" text-anchor="start" font-weight="bold">BBox Area Ratio Distribution</text><line x1="100" y1="450.0" x2="940" y2="450.0" stroke="#e5e7eb" stroke-width="1"/><text x="88" y="455.0" font-size="12" fill="#6b7280" font-family="Helvetica,Arial,sans-serif" text-anchor="end" font-weight="normal">0</text><line x1="100" y1="355.0" x2="940" y2="355.0" stroke="#e5e7eb" stroke-width="1"/><text x="88" y="360.0" font-size="12" fill="#6b7280" font-family="Helvetica,Arial,sans-serif" text-anchor="end" font-weight="normal">126</text><line x1="100" y1="260.0" x2="940" y2="260.0" stroke="#e5e7eb" stroke-width="1"/><text x="88" y="265.0" font-size="12" fill="#6b7280" font-family="Helvetica,Arial,sans-serif" text-anchor="end" font-weight="normal">252</text><line x1="100" y1="165.0" x2="940" y2="165.0" stroke="#e5e7eb" stroke-width="1"/><text x="88" y="170.0" font-size="12" fill="#6b7280" font-family="Helvetica,Arial,sans-serif" text-anchor="end" font-weight="normal">379</text><line x1="100" y1="70.0" x2="940" y2="70.0" stroke="#e5e7eb" stroke-width="1"/><text x="88" y="75.0" font-size="12" fill="#6b7280" font-family="Helvetica,Arial,sans-serif" text-anchor="end" font-weight="normal">505</text><line x1="100" y1="-25.0" x2="940" y2="-25.0" stroke="#e5e7eb" stroke-width="1"/><text x="88" y="-20.0" font-size="12" fill="#6b7280" font-family="Helvetica,Arial,sans-serif" text-anchor="end" font-weight="normal">631</text><line x1="100" y1="450" x2="940" y2="450" stroke="#14213d" stroke-width="1.5"/><rect x="123.8" y="117.40594059405942" width="92.4" height="332.5940594059406" fill="#d62828" stroke="none" rx="4" opacity="1.0"/><text x="170.0" y="109.40594059405942" font-size="12" fill="#14213d" font-family="Helvetica,Arial,sans-serif" text-anchor="middle" font-weight="normal">442</text><text x="170.0" y="472" font-size="12" fill="#14213d" font-family="Helvetica,Arial,sans-serif" text-anchor="end" transform="rotate(-28 170.0 472)">10-15%</text><rect x="263.8" y="79.02970297029702" width="92.4" height="370.970297029703" fill="#d62828" stroke="none" rx="4" opacity="1.0"/><text x="310.0" y="71.02970297029702" font-size="12" fill="#14213d" font-family="Helvetica,Arial,sans-serif" text-anchor="middle" font-weight="normal">493</text><text x="310.0" y="472" font-size="12" fill="#14213d" font-family="Helvetica,Arial,sans-serif" text-anchor="end" transform="rotate(-28 310.0 472)">5-10%</text><rect x="403.8" y="290.4752475247525" width="92.4" height="159.52475247524754" fill="#d62828" stroke="none" rx="4" opacity="1.0"/><text x="450.0" y="282.4752475247525" font-size="12" fill="#14213d" font-family="Helvetica,Arial,sans-serif" text-anchor="middle" font-weight="normal">212</text><text x="450.0" y="472" font-size="12" fill="#14213d" font-family="Helvetica,Arial,sans-serif" text-anchor="end" transform="rotate(-28 450.0 472)">&lt;5%</text><rect x="543.8" y="70.0" width="92.4" height="380.0" fill="#d62828" stroke="none" rx="4" opacity="1.0"/><text x="590.0" y="62.0" font-size="12" fill="#14213d" font-family="Helvetica,Arial,sans-serif" text-anchor="middle" font-weight="normal">505</text><text x="590.0" y="472" font-size="12" fill="#14213d" font-family="Helvetica,Arial,sans-serif" text-anchor="end" transform="rotate(-28 590.0 472)">20-30%</text><rect x="683.8" y="160.2970297029703" width="92.4" height="289.7029702970297" fill="#d62828" stroke="none" rx="4" opacity="1.0"/><text x="730.0" y="152.2970297029703" font-size="12" fill="#14213d" font-family="Helvetica,Arial,sans-serif" text-anchor="middle" font-weight="normal">385</text><text x="730.0" y="472" font-size="12" fill="#14213d" font-family="Helvetica,Arial,sans-serif" text-anchor="end" transform="rotate(-28 730.0 472)">15-20%</text><rect x="823.8" y="103.86138613861385" width="92.4" height="346.13861386138615" fill="#d62828" stroke="none" rx="4" opacity="1.0"/><text x="870.0" y="95.86138613861385" font-size="12" fill="#14213d" font-family="Helvetica,Arial,sans-serif" text-anchor="middle" font-weight="normal">460</text><text x="870.0" y="472" font-size="12" fill="#14213d" font-family="Helvetica,Arial,sans-serif" text-anchor="end" transform="rotate(-28 870.0 472)">&gt;30%</text><text x="490.0" y="542" font-size="13" fill="#6b7280" font-family="Helvetica,Arial,sans-serif" text-anchor="middle" font-weight="normal">Bin</text></svg>