<svg xmlns="http://www.w3.org/2000/svg" width="1040" height="580" viewBox="0 0 1040 580"><title>Modality Coverage by Category</title><rect x="0" y="0" width="1040" height="580" fill="#fffdf7" stroke="none" rx="0" opacity="1.0"/><text x="100" y="36" font-size="24" fill="#14213d" font-family="Helvetica,Arial,sans-serif" text-anchor="start" font-weight="bold">Modality Coverage by Category</text><line x1="100" y1="460.0" x2="1000" y2="460.0" stroke="#e5e7eb" stroke-width="1"/><text x="88" y="465.0" font-size="12" fill="#6b7280" font-family="Helvetica,Arial,sans-serif" text-anchor="end" font-weight="normal">0</text><line x1="100" y1="365.0" x2="1000" y2="365.0" stroke="#e5e7eb" stroke-width="1"/><text x="88" y="370.0" font-size="12" fill="#6b7280" font-family="Helvetica,Arial,sans-serif" text-anchor="end" font-weight="normal">47</text><line x1="100" y1="270.0" x2="1000" y2="270.0" stroke="#e5e7eb" stroke-width="1"/><text x="88" y="275.0" font-size="12" fill="#6b7280" font-family="Helvetica,Arial,sans-serif" text-anchor="end" font-weight="normal">94</text><line x1="100" y1="175.0" x2="1000" y2="175.0" stroke="#e5e7eb" stroke-width="1"/><text x="88" y="180.0" font-size="12" fill="#6b7280" font-family="Helvetica,Arial,sans-serif" text-anchor="end" font-weight="normal">141</text><line x1="100" y1="80.0" x2="1000" y2="80.0" stroke="#e5e7eb" stroke-width="1"/><text x="88" y="85.0" font-size="12" fill="#6b7280" font-family="Helvetica,Arial,sans-serif" text-anchor="end" font-weight="normal">188</text><line x1="100" y1="460" x2="1000" y2="460" stroke="#14213d" stroke-width="1.5"/><rect x="110.125" y="233.61702127659575" width="28.75" height="226.38297872340425" fill="#14213d" stroke="none" rx="3" opacity="1.0"/><rect x="140.875" y="239.68085106382978" width="28.75" height="220.31914893617022" fill="#3a86ff" stroke="none" rx="3" opacity="1.0"/><rect x="171.625" y="356.9148936170213" width="28.75" height="103.08510638297872" fill="#f4a261" stroke="none" rx="3" opacity="1.0"/><text x="156.25" y="484" font-size="12" fill="#14213d" font-family="Helvetica,Arial,sans-serif" text-anchor="end" transform="rotate(-28 156.25 484)">cs</text><rect x="222.625" y="310.4255319148936" width="28.75" height="149.5744680851064" fill="#14213d" stroke="none" rx="3" opacity="1.0"/><rect x="253.375" y="122.44680851063828" width="28.75" height="337.5531914893617" fill="#3a86ff" stroke="none" rx="3" opacity="1.0"/><rect x="284.125" y="409.468085106383" width="28.75" height="50.53191489361702" fill="#f4a261" stroke="none" rx="3" opacity="1.0"/><text x="268.75" y="484" font-size="12" fill="#14213d" font-family="Helvetica,Arial,sans-serif" text-anchor="end" transform="rotate(-28 268.75 484)">econ</text><rect x="335.125" y="304.36170212765956" width="28.75" height="155.63829787234042" fill="#14213d" stroke="none" rx="3" opacity="1.0"/><rect x="365.875" y="247.7659574468085" width="28.75" height="212.2340425531915" fill="#3a86ff" stroke="none" rx="3" opacity="1.0"/><rect x="396.625" y="322.55319148936167" width="28.75" height="137.4468085106383" fill="#f4a261" stroke="none" rx="3" opacity="1.0"/><text x="381.25" y="484" font-size="12" fill="#14213d" font-family="Helvetica,Arial,sans-serif" text-anchor="end" transform="rotate(-28 381.25 484)">eess</text><rect x="447.625" y="80.0" width="28.75" height="380.0" fill="#14213d" stroke="none" rx="3" opacity="1.0"/><rect x="478.375" y="460.0" width="28.75" height="0.0" fill="#3a86ff" stroke="none" rx="3" opacity="1.0"/><rect x="509.125" y="460.0" width="28.75" height="0.0" fill="#f4a261" stroke="none" rx="3" opacity="1.0"/><text x="493.75" y="484" font-size="12" fill="#14213d" font-family="Helvetica,Arial,sans-serif" text-anchor="end" transform="rotate(-28 493.75 484)">math</text><rect x="560.125" y="183.08510638297872" width="28.75" height="276.9148936170213" fill="#14213d" stroke="none" rx="3" opacity="1.0"/><rect x="590.875" y="237.6595744680851" width="28.75" height="222.3404255319149" fill="#3a86ff" stroke="none" rx="3" opacity="1.0"/><rect x="621.625" y="437.7659574468085" width="28.75" height="22.23404255319149" fill="#f4a261" stroke="none" rx="3" opacity="1.0"/><text x="606.25" y="484" font-size="12" fill="#14213d" font-family="Helvetica,Arial,sans-serif" text-anchor="end" transform="rotate(-28 606.25 484)">physics</text><rect x="672.625" y="223.51063829787233" width="28.75" height="236.48936170212767" fill="#14213d" stroke="none" rx="3" opacity="1.0"/><rect x="703.375" y="324.5744680851064" width="28.75" height="135.4255319148936" fill="#3a86ff" stroke="none" rx="3" opacity="1.0"/><rect x="734.125" y="387.2340425531915" width="28.75" height="72.76595744680851" fill="#f4a261" stroke="none" rx="3" opacity="1.0"/><text x="718.75" y="484" font-size="12" fill="#14213d" font-family="Helvetica,Arial,sans-serif" text-anchor="end" transform="rotate(-28 718.75 484)">q-bio</text><rect x="785.125" y="267.97872340425533" width="28.75" height="192.0212765957447" fill="#14213d" stroke="none" rx="3" opacity="1.0"/><rect x="815.875" y="259.89361702127655" width="28.75" height="200.10638297872342" fill="#3a86ff" stroke="none" rx="3" opacity="1.0"/><rect x="846.625" y="326.59574468085106" width="28.75" height="133.40425531914894" fill="#f4a261" stroke="none" rx="3" opacity="1.0"/><text x="831.25" y="484" font-size="12" fill="#14213d" font-family="Helvetica,Arial,sans-serif" text-anchor="end" transform="rotate(-28 831.25 484)">q-fin</text><rect x="897.625" y="152.7659574468085" width="28.75" height="307.2340425531915" fill="#14213d" stroke="none" rx="3" opacity="1.0"/><rect x="928.375" y="330.63829787234044" width="28.75" height="129.36170212765958" fill="#3a86ff" stroke="none" rx="3" opacity="1.0"/><rect x="959.125" y="413.51063829787233" width="28.75" height="46.48936170212766" fill="#f4a261" stroke="none" rx="3" opacity="1.0"/><text x="943.75" y="484" font-size="12" fill="#14213d" font-family="Helvetica,Arial,sans-serif" text-anchor="end" transform="rotate(-28 943.75 484)">stat</text><rect x="750" y="28" width="14" height="14" fill="#14213d" stroke="none" rx="2" opacity="1.0"/><text x="770" y="40" font-size="12" fill="#14213d" font-family="Helvetica,Arial,sans-serif" text-anchor="start" font-weight="normal">text</text><rect x="830" y="28" width="14" height="14" fill="#3a86ff" stroke="none" rx="2" opacity="1.0"/><text x="850" y="40" font-size="12" fill="#14213d" font-family="Helvetica,Arial,sans-serif" text-anchor="start" font-weight="normal">image</text><rect x="910" y="28" width="14" height="14" fill="#f4a261" stroke="none" rx="2" opacity="1.0"/><text x="930" y="40" font-size="12" fill="#14213d" font-family="Helvetica,Arial,sans-serif" text-anchor="start" font-weight="normal">table</text></svg>