<svg xmlns="http://www.w3.org/2000/svg" width="980" height="560" viewBox="0 0 980 560"><title>Samples per Category</title><rect x="0" y="0" width="980" height="560" fill="#fffdf7" stroke="none" rx="0" opacity="1.0"/><text x="100" y="36" font-size="24" fill="#14213d" font-family="Helvetica,Arial,sans-serif" text-anchor="start" font-weight="bold">Samples per Category</text><line x1="100" y1="450.0" x2="940" y2="450.0" stroke="#e5e7eb" stroke-width="1"/><text x="88" y="455.0" font-size="12" fill="#6b7280" font-family="Helvetica,Arial,sans-serif" text-anchor="end" font-weight="normal">0</text><line x1="100" y1="355.0" x2="940" y2="355.0" stroke="#e5e7eb" stroke-width="1"/><text x="88" y="360.0" font-size="12" fill="#6b7280" font-family="Helvetica,Arial,sans-serif" text-anchor="end" font-weight="normal">54</text><line x1="100" y1="260.0" x2="940" y2="260.0" stroke="#e5e7eb" stroke-width="1"/><text x="88" y="265.0" font-size="12" fill="#6b7280" font-family="Helvetica,Arial,sans-serif" text-anchor="end" font-weight="normal">109</text><line x1="100" y1="165.0" x2="940" y2="165.0" stroke="#e5e7eb" stroke-width="1"/><text x="88" y="170.0" font-size="12" fill="#6b7280" font-family="Helvetica,Arial,sans-serif" text-anchor="end" font-weight="normal">164</text><line x1="100" y1="70.0" x2="940" y2="70.0" stroke="#e5e7eb" stroke-width="1"/><text x="88" y="75.0" font-size="12" fill="#6b7280" font-family="Helvetica,Arial,sans-serif" text-anchor="end" font-weight="normal">218</text><line x1="100" y1="-25.0" x2="940" y2="-25.0" stroke="#e5e7eb" stroke-width="1"/><text x="88" y="-20.0" font-size="12" fill="#6b7280" font-family="Helvetica,Arial,sans-serif" text-anchor="end" font-weight="normal">272</text><line x1="100" y1="-120.0" x2="940" y2="-120.0" stroke="#e5e7eb" stroke-width="1"/><text x="88" y="-115.0" font-size="12" fill="#6b7280" font-family="Helvetica,Arial,sans-serif" text-anchor="end" font-weight="normal">327</text><line x1="100" y1="-215.0" x2="940" y2="-215.0" stroke="#e5e7eb" stroke-width="1"/><text x="88" y="-210.0" font-size="12" fill="#6b7280" font-family="Helvetica,Arial,sans-serif" text-anchor="end" font-weight="normal">382</text><line x1="100" y1="450" x2="940" y2="450" stroke="#14213d" stroke-width="1.5"/><rect x="117.85" y="73.48623853211006" width="69.3" height="376.51376146788994" fill="#3a86ff" stroke="none" rx="4" opacity="1.0"/><text x="152.5" y="65.48623853211006" font-size="12" fill="#14213d" font-family="Helvetica,Arial,sans-serif" text-anchor="middle" font-weight="normal">216</text><text x="152.5" y="472" font-size="12" fill="#14213d" font-family="Helvetica,Arial,sans-serif" text-anchor="end" transform="rotate(-28 152.5 472)">cs</text><rect x="222.85" y="70.0" width="69.3" height="380.0" fill="#3a86ff" stroke="none" rx="4" opacity="1.0"/><text x="257.5" y="62.0" font-size="12" fill="#14213d" font-family="Helvetica,Arial,sans-serif" text-anchor="middle" font-weight="normal">218</text><text x="257.5" y="472" font-size="12" fill="#14213d" font-family="Helvetica,Arial,sans-serif" text-anchor="end" transform="rotate(-28 257.5 472)">econ</text><rect x="327.85" y="108.348623853211" width="69.3" height="341.651376146789" fill="#3a86ff" stroke="none" rx="4" opacity="1.0"/><text x="362.5" y="100.348623853211" font-size="12" fill="#14213d" font-family="Helvetica,Arial,sans-serif" text-anchor="middle" font-weight="normal">196</text><text x="362.5" y="472" font-size="12" fill="#14213d" font-family="Helvetica,Arial,sans-serif" text-anchor="end" transform="rotate(-28 362.5 472)">eess</text><rect x="432.85" y="122.29357798165137" width="69.3" height="327.70642201834863" fill="#3a86ff" stroke="none" rx="4" opacity="1.0"/><text x="467.5" y="114.29357798165137" font-size="12" fill="#14213d" font-family="Helvetica,Arial,sans-serif" text-anchor="middle" font-weight="normal">188</text><text x="467.5" y="472" font-size="12" fill="#14213d" font-family="Helvetica,Arial,sans-serif" text-anchor="end" transform="rotate(-28 467.5 472)">math</text><rect x="537.85" y="78.71559633027522" width="69.3" height="371.2844036697248" fill="#3a86ff" stroke="none" rx="4" opacity="1.0"/><text x="572.5" y="70.71559633027522" font-size="12" fill="#14213d" font-family="Helvetica,Arial,sans-serif" text-anchor="middle" font-weight="normal">213</text><text x="572.5" y="472" font-size="12" fill="#14213d" font-family="Helvetica,Arial,sans-serif" text-anchor="end" transform="rotate(-28 572.5 472)">physics</text><rect x="642.85" y="143.21100917431193" width="69.3" height="306.7889908256881" fill="#3a86ff" stroke="none" rx="4" opacity="1.0"/><text x="677.5" y="135.21100917431193" font-size="12" fill="#14213d" font-family="Helvetica,Arial,sans-serif" text-anchor="middle" font-weight="normal">176</text><text x="677.5" y="472" font-size="12" fill="#14213d" font-family="Helvetica,Arial,sans-serif" text-anchor="end" transform="rotate(-28 677.5 472)">q-bio</text><rect x="747.85" y="73.48623853211006" width="69.3" height="376.51376146788994" fill="#3a86ff" stroke="none" rx="4" opacity="1.0"/><text x="782.5" y="65.48623853211006" font-size="12" fill="#14213d" font-family="Helvetica,Arial,sans-serif" text-anchor="middle" font-weight="normal">216</text><text x="782.5" y="472" font-size="12" fill="#14213d" font-family="Helvetica,Arial,sans-serif" text-anchor="end" transform="rotate(-28 782.5 472)">q-fin</text><rect x="852.85" y="101.37614678899081" width="69.3" height="348.6238532110092" fill="#3a86ff" stroke="none" rx="4" opacity="1.0"/><text x="887.5" y="93.37614678899081" font-size="12" fill="#14213d" font-family="Helvetica,Arial,sans-serif" text-anchor="middle" font-weight="normal">200</text><text x="887.5" y="472" font-size="12" fill="#14213d" font-family="Helvetica,Arial,sans-serif" text-anchor="end" transform="rotate(-28 887.5 472)">stat</text><text x="490.0" y="542" font-size="13" fill="#6b7280" font-family="Helvetica,Arial,sans-serif" text-anchor="middle" font-weight="normal">Category</text></svg>