<svg xmlns="http://www.w3.org/2000/svg" width="980" height="560" viewBox="0 0 980 560"><title>Reasoning Complexity</title><rect x="0" y="0" width="980" height="560" fill="#ffffff" stroke="none" rx="0" opacity="1.0"/><text x="100" y="36" font-size="24" fill="#14213d" font-family="Helvetica,Arial,sans-serif" text-anchor="start" font-weight="bold">Reasoning Complexity</text><line x1="100" y1="450.0" x2="940" y2="450.0" stroke="#d7e7fb" stroke-width="1"/><text x="88" y="455.0" font-size="12" fill="#4f6280" font-family="Helvetica,Arial,sans-serif" text-anchor="end" font-weight="normal">0</text><line x1="100" y1="357.5" x2="940" y2="357.5" stroke="#d7e7fb" stroke-width="1"/><text x="88" y="362.5" font-size="12" fill="#4f6280" font-family="Helvetica,Arial,sans-serif" text-anchor="end" font-weight="normal">4795</text><line x1="100" y1="265.0" x2="940" y2="265.0" stroke="#d7e7fb" stroke-width="1"/><text x="88" y="270.0" font-size="12" fill="#4f6280" font-family="Helvetica,Arial,sans-serif" text-anchor="end" font-weight="normal">9590</text><line x1="100" y1="172.5" x2="940" y2="172.5" stroke="#d7e7fb" stroke-width="1"/><text x="88" y="177.5" font-size="12" fill="#4f6280" font-family="Helvetica,Arial,sans-serif" text-anchor="end" font-weight="normal">14385</text><line x1="100" y1="80.0" x2="940" y2="80.0" stroke="#d7e7fb" stroke-width="1"/><text x="88" y="85.0" font-size="12" fill="#4f6280" font-family="Helvetica,Arial,sans-serif" text-anchor="end" font-weight="normal">19180</text><line x1="100" y1="450" x2="940" y2="450" stroke="#14213d" stroke-width="1.5"/><rect x="139.9" y="80.0" width="130.2" height="370.0" fill="#2563eb" stroke="none" rx="2" opacity="1.0"/><rect x="139.9" y="80.0" width="130.2" height="0.0" fill="#1d4ed8" stroke="none" rx="2" opacity="1.0"/><text x="205.0" y="472" font-size="12" fill="#14213d" font-family="Helvetica,Arial,sans-serif" text-anchor="middle" font-weight="normal">Single-page</text><text x="205.0" y="72.0" font-size="12" fill="#14213d" font-family="Helvetica,Arial,sans-serif" text-anchor="middle" font-weight="normal">19180</text><rect x="349.9" y="226.2252346193952" width="130.2" height="223.7747653806048" fill="#2563eb" stroke="none" rx="2" opacity="1.0"/><rect x="349.9" y="226.2252346193952" width="130.2" height="0.0" fill="#1d4ed8" stroke="none" rx="2" opacity="1.0"/><text x="415.0" y="472" font-size="12" fill="#14213d" font-family="Helvetica,Arial,sans-serif" text-anchor="middle" font-weight="normal">Multi-page</text><text x="415.0" y="218.2252346193952" font-size="12" fill="#14213d" font-family="Helvetica,Arial,sans-serif" text-anchor="middle" font-weight="normal">11600</text><rect x="559.9" y="450.0" width="130.2" height="0.0" fill="#2563eb" stroke="none" rx="2" opacity="1.0"/><rect x="559.9" y="224.91345151199167" width="130.2" height="225.08654848800833" fill="#1d4ed8" stroke="none" rx="2" opacity="1.0"/><text x="625.0" y="472" font-size="12" fill="#14213d" font-family="Helvetica,Arial,sans-serif" text-anchor="middle" font-weight="normal">Single-box</text><text x="625.0" y="216.91345151199167" font-size="12" fill="#14213d" font-family="Helvetica,Arial,sans-serif" text-anchor="middle" font-weight="normal">11668</text><rect x="769.9" y="450.0" width="130.2" height="0.0" fill="#2563eb" stroke="none" rx="2" opacity="1.0"/><rect x="769.9" y="81.31178310740353" width="130.2" height="368.6882168925965" fill="#1d4ed8" stroke="none" rx="2" opacity="1.0"/><text x="835.0" y="472" font-size="12" fill="#14213d" font-family="Helvetica,Arial,sans-serif" text-anchor="middle" font-weight="normal">Multi-box</text><text x="835.0" y="73.31178310740353" font-size="12" fill="#14213d" font-family="Helvetica,Arial,sans-serif" text-anchor="middle" font-weight="normal">19112</text><rect x="660" y="28" width="14" height="14" fill="#2563eb" stroke="none" rx="2" opacity="1.0"/><text x="680" y="40" font-size="12" fill="#14213d" font-family="Helvetica,Arial,sans-serif" text-anchor="start" font-weight="normal">count</text><rect x="745" y="28" width="14" height="14" fill="#1d4ed8" stroke="none" rx="2" opacity="1.0"/><text x="765" y="40" font-size="12" fill="#14213d" font-family="Helvetica,Arial,sans-serif" text-anchor="start" font-weight="normal">count</text></svg>