<svg xmlns="http://www.w3.org/2000/svg" width="980" height="560" viewBox="0 0 980 560"><title>Top Modality Combinations</title><rect x="0" y="0" width="980" height="560" fill="#fffdf7" stroke="none" rx="0" opacity="1.0"/><text x="100" y="36" font-size="24" fill="#14213d" font-family="Helvetica,Arial,sans-serif" text-anchor="start" font-weight="bold">Top Modality Combinations</text><line x1="100" y1="450.0" x2="940" y2="450.0" stroke="#e5e7eb" stroke-width="1"/><text x="88" y="455.0" font-size="12" fill="#6b7280" font-family="Helvetica,Arial,sans-serif" text-anchor="end" font-weight="normal">0</text><line x1="100" y1="355.0" x2="940" y2="355.0" stroke="#e5e7eb" stroke-width="1"/><text x="88" y="360.0" font-size="12" fill="#6b7280" font-family="Helvetica,Arial,sans-serif" text-anchor="end" font-weight="normal">178</text><line x1="100" y1="260.0" x2="940" y2="260.0" stroke="#e5e7eb" stroke-width="1"/><text x="88" y="265.0" font-size="12" fill="#6b7280" font-family="Helvetica,Arial,sans-serif" text-anchor="end" font-weight="normal">356</text><line x1="100" y1="165.0" x2="940" y2="165.0" stroke="#e5e7eb" stroke-width="1"/><text x="88" y="170.0" font-size="12" fill="#6b7280" font-family="Helvetica,Arial,sans-serif" text-anchor="end" font-weight="normal">534</text><line x1="100" y1="70.0" x2="940" y2="70.0" stroke="#e5e7eb" stroke-width="1"/><text x="88" y="75.0" font-size="12" fill="#6b7280" font-family="Helvetica,Arial,sans-serif" text-anchor="end" font-weight="normal">712</text><line x1="100" y1="-25.0" x2="940" y2="-25.0" stroke="#e5e7eb" stroke-width="1"/><text x="88" y="-20.0" font-size="12" fill="#6b7280" font-family="Helvetica,Arial,sans-serif" text-anchor="end" font-weight="normal">890</text><line x1="100" y1="450" x2="940" y2="450" stroke="#14213d" stroke-width="1.5"/><rect x="123.8" y="70.0" width="92.4" height="380.0" fill="#2a9d8f" stroke="none" rx="4" opacity="1.0"/><text x="170.0" y="62.0" font-size="12" fill="#14213d" font-family="Helvetica,Arial,sans-serif" text-anchor="middle" font-weight="normal">712</text><text x="170.0" y="472" font-size="12" fill="#14213d" font-family="Helvetica,Arial,sans-serif" text-anchor="end" transform="rotate(-28 170.0 472)">text</text><rect x="263.8" y="213.56741573033707" width="92.4" height="236.43258426966293" fill="#2a9d8f" stroke="none" rx="4" opacity="1.0"/><text x="310.0" y="205.56741573033707" font-size="12" fill="#14213d" font-family="Helvetica,Arial,sans-serif" text-anchor="middle" font-weight="normal">443</text><text x="310.0" y="472" font-size="12" fill="#14213d" font-family="Helvetica,Arial,sans-serif" text-anchor="end" transform="rotate(-28 310.0 472)">image</text><rect x="403.8" y="349.6629213483146" width="92.4" height="100.33707865168539" fill="#2a9d8f" stroke="none" rx="4" opacity="1.0"/><text x="450.0" y="341.6629213483146" font-size="12" fill="#14213d" font-family="Helvetica,Arial,sans-serif" text-anchor="middle" font-weight="normal">188</text><text x="450.0" y="472" font-size="12" fill="#14213d" font-family="Helvetica,Arial,sans-serif" text-anchor="end" transform="rotate(-28 450.0 472)">image + text</text><rect x="543.8" y="376.34831460674155" width="92.4" height="73.65168539325843" fill="#2a9d8f" stroke="none" rx="4" opacity="1.0"/><text x="590.0" y="368.34831460674155" font-size="12" fill="#14213d" font-family="Helvetica,Arial,sans-serif" text-anchor="middle" font-weight="normal">138</text><text x="590.0" y="472" font-size="12" fill="#14213d" font-family="Helvetica,Arial,sans-serif" text-anchor="end" transform="rotate(-28 590.0 472)">table</text><rect x="683.8" y="401.96629213483146" width="92.4" height="48.03370786516854" fill="#2a9d8f" stroke="none" rx="4" opacity="1.0"/><text x="730.0" y="393.96629213483146" font-size="12" fill="#14213d" font-family="Helvetica,Arial,sans-serif" text-anchor="middle" font-weight="normal">90</text><text x="730.0" y="472" font-size="12" fill="#14213d" font-family="Helvetica,Arial,sans-serif" text-anchor="end" transform="rotate(-28 730.0 472)">image + table</text><rect x="823.8" y="422.24719101123594" width="92.4" height="27.752808988764045" fill="#2a9d8f" stroke="none" rx="4" opacity="1.0"/><text x="870.0" y="414.24719101123594" font-size="12" fill="#14213d" font-family="Helvetica,Arial,sans-serif" text-anchor="middle" font-weight="normal">52</text><text x="870.0" y="472" font-size="12" fill="#14213d" font-family="Helvetica,Arial,sans-serif" text-anchor="end" transform="rotate(-28 870.0 472)">table + text</text><text x="490.0" y="542" font-size="13" fill="#6b7280" font-family="Helvetica,Arial,sans-serif" text-anchor="middle" font-weight="normal">Combination</text></svg>