<svg xmlns="http://www.w3.org/2000/svg" width="980" height="560" viewBox="0 0 980 560"><title>BBox Area Ratio Distribution</title><rect x="0" y="0" width="980" height="560" fill="#ffffff" stroke="none" rx="0" opacity="1.0"/><text x="100" y="36" font-size="24" fill="#14213d" font-family="Helvetica,Arial,sans-serif" text-anchor="start" font-weight="bold">BBox Area Ratio Distribution</text><line x1="100" y1="450.0" x2="940" y2="450.0" stroke="#d7e7fb" stroke-width="1"/><text x="88" y="455.0" font-size="12" fill="#4f6280" font-family="Helvetica,Arial,sans-serif" text-anchor="end" font-weight="normal">0</text><line x1="100" y1="355.0" x2="940" y2="355.0" stroke="#d7e7fb" stroke-width="1"/><text x="88" y="360.0" font-size="12" fill="#4f6280" font-family="Helvetica,Arial,sans-serif" text-anchor="end" font-weight="normal">6157</text><line x1="100" y1="260.0" x2="940" y2="260.0" stroke="#d7e7fb" stroke-width="1"/><text x="88" y="265.0" font-size="12" fill="#4f6280" font-family="Helvetica,Arial,sans-serif" text-anchor="end" font-weight="normal">12314</text><line x1="100" y1="165.0" x2="940" y2="165.0" stroke="#d7e7fb" stroke-width="1"/><text x="88" y="170.0" font-size="12" fill="#4f6280" font-family="Helvetica,Arial,sans-serif" text-anchor="end" font-weight="normal">18472</text><line x1="100" y1="70.0" x2="940" y2="70.0" stroke="#d7e7fb" stroke-width="1"/><text x="88" y="75.0" font-size="12" fill="#4f6280" font-family="Helvetica,Arial,sans-serif" text-anchor="end" font-weight="normal">24629</text><line x1="100" y1="-25.0" x2="940" y2="-25.0" stroke="#d7e7fb" stroke-width="1"/><text x="88" y="-20.0" font-size="12" fill="#4f6280" font-family="Helvetica,Arial,sans-serif" text-anchor="end" font-weight="normal">30786</text><line x1="100" y1="450" x2="940" y2="450" stroke="#14213d" stroke-width="1.5"/><rect x="123.8" y="70.0" width="92.4" height="380.0" fill="#1d4ed8" stroke="none" rx="4" opacity="1.0"/><text x="170.0" y="62.0" font-size="12" fill="#14213d" font-family="Helvetica,Arial,sans-serif" text-anchor="middle" font-weight="normal">24629</text><text x="170.0" y="472" font-size="12" fill="#14213d" font-family="Helvetica,Arial,sans-serif" text-anchor="end" transform="rotate(-28 170.0 472)">5-10%</text><rect x="263.8" y="384.4114661577815" width="92.4" height="65.58853384221852" fill="#1d4ed8" stroke="none" rx="4" opacity="1.0"/><text x="310.0" y="376.4114661577815" font-size="12" fill="#14213d" font-family="Helvetica,Arial,sans-serif" text-anchor="middle" font-weight="normal">4251</text><text x="310.0" y="472" font-size="12" fill="#14213d" font-family="Helvetica,Arial,sans-serif" text-anchor="end" transform="rotate(-28 310.0 472)">20-30%</text><rect x="403.8" y="276.6864265703033" width="92.4" height="173.3135734296967" fill="#1d4ed8" stroke="none" rx="4" opacity="1.0"/><text x="450.0" y="268.6864265703033" font-size="12" fill="#14213d" font-family="Helvetica,Arial,sans-serif" text-anchor="middle" font-weight="normal">11233</text><text x="450.0" y="472" font-size="12" fill="#14213d" font-family="Helvetica,Arial,sans-serif" text-anchor="end" transform="rotate(-28 450.0 472)">10-15%</text><rect x="543.8" y="369.6613748020626" width="92.4" height="80.33862519793739" fill="#1d4ed8" stroke="none" rx="4" opacity="1.0"/><text x="590.0" y="361.6613748020626" font-size="12" fill="#14213d" font-family="Helvetica,Arial,sans-serif" text-anchor="middle" font-weight="normal">5207</text><text x="590.0" y="472" font-size="12" fill="#14213d" font-family="Helvetica,Arial,sans-serif" text-anchor="end" transform="rotate(-28 590.0 472)">15-20%</text><rect x="683.8" y="381.5416785090747" width="92.4" height="68.45832149092533" fill="#1d4ed8" stroke="none" rx="4" opacity="1.0"/><text x="730.0" y="373.5416785090747" font-size="12" fill="#14213d" font-family="Helvetica,Arial,sans-serif" text-anchor="middle" font-weight="normal">4437</text><text x="730.0" y="472" font-size="12" fill="#14213d" font-family="Helvetica,Arial,sans-serif" text-anchor="end" transform="rotate(-28 730.0 472)">&gt;30%</text><rect x="823.8" y="447.9170896098096" width="92.4" height="2.082910390190426" fill="#1d4ed8" stroke="none" rx="4" opacity="1.0"/><text x="870.0" y="439.9170896098096" font-size="12" fill="#14213d" font-family="Helvetica,Arial,sans-serif" text-anchor="middle" font-weight="normal">135</text><text x="870.0" y="472" font-size="12" fill="#14213d" font-family="Helvetica,Arial,sans-serif" text-anchor="end" transform="rotate(-28 870.0 472)">&lt;5%</text><text x="490.0" y="542" font-size="13" fill="#4f6280" font-family="Helvetica,Arial,sans-serif" text-anchor="middle" font-weight="normal">Bin</text></svg>