<svg xmlns="http://www.w3.org/2000/svg" width="980" height="620" viewBox="0 0 980 620"><title>Category × Modality Matrix</title><rect x="0" y="0" width="980" height="620" fill="#fffdf7" stroke="none" rx="0" opacity="1.0"/><text x="150" y="40" font-size="24" fill="#14213d" font-family="Helvetica,Arial,sans-serif" text-anchor="start" font-weight="bold">Category × Modality Matrix</text><text x="193.0" y="74" font-size="12" fill="#14213d" font-family="Helvetica,Arial,sans-serif" text-anchor="middle" font-weight="normal">cs</text><text x="279.0" y="74" font-size="12" fill="#14213d" font-family="Helvetica,Arial,sans-serif" text-anchor="middle" font-weight="normal">econ</text><text x="365.0" y="74" font-size="12" fill="#14213d" font-family="Helvetica,Arial,sans-serif" text-anchor="middle" font-weight="normal">eess</text><text x="451.0" y="74" font-size="12" fill="#14213d" font-family="Helvetica,Arial,sans-serif" text-anchor="middle" font-weight="normal">math</text><text x="537.0" y="74" font-size="12" fill="#14213d" font-family="Helvetica,Arial,sans-serif" text-anchor="middle" font-weight="normal">physics</text><text x="623.0" y="74" font-size="12" fill="#14213d" font-family="Helvetica,Arial,sans-serif" text-anchor="middle" font-weight="normal">q-bio</text><text x="709.0" y="74" font-size="12" fill="#14213d" font-family="Helvetica,Arial,sans-serif" text-anchor="middle" font-weight="normal">q-fin</text><text x="795.0" y="74" font-size="12" fill="#14213d" font-family="Helvetica,Arial,sans-serif" text-anchor="middle" font-weight="normal">stat</text><text x="134" y="124.0" font-size="12" fill="#14213d" font-family="Helvetica,Arial,sans-serif" text-anchor="end" font-weight="normal">text</text><rect x="150" y="90" width="84" height="56" fill="#f59e0b" stroke="none" rx="6" opacity="1.0"/><text x="193.0" y="124.0" font-size="12" fill="#ffffff" font-family="Helvetica,Arial,sans-serif" text-anchor="middle" font-weight="bold">3096</text><rect x="236" y="90" width="84" height="56" fill="#fcd34d" stroke="none" rx="6" opacity="1.0"/><text x="279.0" y="124.0" font-size="12" fill="#14213d" font-family="Helvetica,Arial,sans-serif" text-anchor="middle" font-weight="bold">2210</text><rect x="322" y="90" width="84" height="56" fill="#f59e0b" stroke="none" rx="6" opacity="1.0"/><text x="365.0" y="124.0" font-size="12" fill="#ffffff" font-family="Helvetica,Arial,sans-serif" text-anchor="middle" font-weight="bold">3093</text><rect x="408" y="90" width="84" height="56" fill="#fef3c7" stroke="none" rx="6" opacity="1.0"/><text x="451.0" y="124.0" font-size="12" fill="#14213d" font-family="Helvetica,Arial,sans-serif" text-anchor="middle" font-weight="bold">1003</text><rect x="494" y="90" width="84" height="56" fill="#f59e0b" stroke="none" rx="6" opacity="1.0"/><text x="537.0" y="124.0" font-size="12" fill="#ffffff" font-family="Helvetica,Arial,sans-serif" text-anchor="middle" font-weight="bold">2615</text><rect x="580" y="90" width="84" height="56" fill="#d97706" stroke="none" rx="6" opacity="1.0"/><text x="623.0" y="124.0" font-size="12" fill="#ffffff" font-family="Helvetica,Arial,sans-serif" text-anchor="middle" font-weight="bold">4020</text><rect x="666" y="90" width="84" height="56" fill="#92400e" stroke="none" rx="6" opacity="1.0"/><text x="709.0" y="124.0" font-size="12" fill="#ffffff" font-family="Helvetica,Arial,sans-serif" text-anchor="middle" font-weight="bold">4571</text><rect x="752" y="90" width="84" height="56" fill="#fcd34d" stroke="none" rx="6" opacity="1.0"/><text x="795.0" y="124.0" font-size="12" fill="#14213d" font-family="Helvetica,Arial,sans-serif" text-anchor="middle" font-weight="bold">1970</text><text x="134" y="182.0" font-size="12" fill="#14213d" font-family="Helvetica,Arial,sans-serif" text-anchor="end" font-weight="normal">image</text><rect x="150" y="148" width="84" height="56" fill="#fef3c7" stroke="none" rx="6" opacity="1.0"/><text x="193.0" y="182.0" font-size="12" fill="#14213d" font-family="Helvetica,Arial,sans-serif" text-anchor="middle" font-weight="bold">1030</text><rect x="236" y="148" width="84" height="56" fill="#fcd34d" stroke="none" rx="6" opacity="1.0"/><text x="279.0" y="182.0" font-size="12" fill="#14213d" font-family="Helvetica,Arial,sans-serif" text-anchor="middle" font-weight="bold">1219</text><rect x="322" y="148" width="84" height="56" fill="#fef3c7" stroke="none" rx="6" opacity="1.0"/><text x="365.0" y="182.0" font-size="12" fill="#14213d" font-family="Helvetica,Arial,sans-serif" text-anchor="middle" font-weight="bold">1011</text><rect x="408" y="148" width="84" height="56" fill="#fef3c7" stroke="none" rx="6" opacity="1.0"/><text x="451.0" y="182.0" font-size="12" fill="#14213d" font-family="Helvetica,Arial,sans-serif" text-anchor="middle" font-weight="bold">267</text><rect x="494" y="148" width="84" height="56" fill="#fcd34d" stroke="none" rx="6" opacity="1.0"/><text x="537.0" y="182.0" font-size="12" fill="#14213d" font-family="Helvetica,Arial,sans-serif" text-anchor="middle" font-weight="bold">1452</text><rect x="580" y="148" width="84" height="56" fill="#fcd34d" stroke="none" rx="6" opacity="1.0"/><text x="623.0" y="182.0" font-size="12" fill="#14213d" font-family="Helvetica,Arial,sans-serif" text-anchor="middle" font-weight="bold">2100</text><rect x="666" y="148" width="84" height="56" fill="#fcd34d" stroke="none" rx="6" opacity="1.0"/><text x="709.0" y="182.0" font-size="12" fill="#14213d" font-family="Helvetica,Arial,sans-serif" text-anchor="middle" font-weight="bold">1897</text><rect x="752" y="148" width="84" height="56" fill="#fef3c7" stroke="none" rx="6" opacity="1.0"/><text x="795.0" y="182.0" font-size="12" fill="#14213d" font-family="Helvetica,Arial,sans-serif" text-anchor="middle" font-weight="bold">1140</text><text x="134" y="240.0" font-size="12" fill="#14213d" font-family="Helvetica,Arial,sans-serif" text-anchor="end" font-weight="normal">table</text><rect x="150" y="206" width="84" height="56" fill="#fef3c7" stroke="none" rx="6" opacity="1.0"/><text x="193.0" y="240.0" font-size="12" fill="#14213d" font-family="Helvetica,Arial,sans-serif" text-anchor="middle" font-weight="bold">835</text><rect x="236" y="206" width="84" height="56" fill="#fef3c7" stroke="none" rx="6" opacity="1.0"/><text x="279.0" y="240.0" font-size="12" fill="#14213d" font-family="Helvetica,Arial,sans-serif" text-anchor="middle" font-weight="bold">860</text><rect x="322" y="206" width="84" height="56" fill="#fef3c7" stroke="none" rx="6" opacity="1.0"/><text x="365.0" y="240.0" font-size="12" fill="#14213d" font-family="Helvetica,Arial,sans-serif" text-anchor="middle" font-weight="bold">895</text><rect x="408" y="206" width="84" height="56" fill="#fef3c7" stroke="none" rx="6" opacity="1.0"/><text x="451.0" y="240.0" font-size="12" fill="#14213d" font-family="Helvetica,Arial,sans-serif" text-anchor="middle" font-weight="bold">133</text><rect x="494" y="206" width="84" height="56" fill="#fef3c7" stroke="none" rx="6" opacity="1.0"/><text x="537.0" y="240.0" font-size="12" fill="#14213d" font-family="Helvetica,Arial,sans-serif" text-anchor="middle" font-weight="bold">262</text><rect x="580" y="206" width="84" height="56" fill="#fef3c7" stroke="none" rx="6" opacity="1.0"/><text x="623.0" y="240.0" font-size="12" fill="#14213d" font-family="Helvetica,Arial,sans-serif" text-anchor="middle" font-weight="bold">962</text><rect x="666" y="206" width="84" height="56" fill="#fcd34d" stroke="none" rx="6" opacity="1.0"/><text x="709.0" y="240.0" font-size="12" fill="#14213d" font-family="Helvetica,Arial,sans-serif" text-anchor="middle" font-weight="bold">1388</text><rect x="752" y="206" width="84" height="56" fill="#fef3c7" stroke="none" rx="6" opacity="1.0"/><text x="795.0" y="240.0" font-size="12" fill="#14213d" font-family="Helvetica,Arial,sans-serif" text-anchor="middle" font-weight="bold">552</text></svg>