<svg xmlns="http://www.w3.org/2000/svg" width="1040" height="580" viewBox="0 0 1040 580"><title>Modality Coverage by Category</title><rect x="0" y="0" width="1040" height="580" fill="#fffdf7" stroke="none" rx="0" opacity="1.0"/><text x="100" y="36" font-size="24" fill="#14213d" font-family="Helvetica,Arial,sans-serif" text-anchor="start" font-weight="bold">Modality Coverage by Category</text><line x1="100" y1="460.0" x2="1000" y2="460.0" stroke="#e5e7eb" stroke-width="1"/><text x="88" y="465.0" font-size="12" fill="#6b7280" font-family="Helvetica,Arial,sans-serif" text-anchor="end" font-weight="normal">0</text><line x1="100" y1="365.0" x2="1000" y2="365.0" stroke="#e5e7eb" stroke-width="1"/><text x="88" y="370.0" font-size="12" fill="#6b7280" font-family="Helvetica,Arial,sans-serif" text-anchor="end" font-weight="normal">1143</text><line x1="100" y1="270.0" x2="1000" y2="270.0" stroke="#e5e7eb" stroke-width="1"/><text x="88" y="275.0" font-size="12" fill="#6b7280" font-family="Helvetica,Arial,sans-serif" text-anchor="end" font-weight="normal">2286</text><line x1="100" y1="175.0" x2="1000" y2="175.0" stroke="#e5e7eb" stroke-width="1"/><text x="88" y="180.0" font-size="12" fill="#6b7280" font-family="Helvetica,Arial,sans-serif" text-anchor="end" font-weight="normal">3428</text><line x1="100" y1="80.0" x2="1000" y2="80.0" stroke="#e5e7eb" stroke-width="1"/><text x="88" y="85.0" font-size="12" fill="#6b7280" font-family="Helvetica,Arial,sans-serif" text-anchor="end" font-weight="normal">4571</text><line x1="100" y1="460" x2="1000" y2="460" stroke="#14213d" stroke-width="1.5"/><rect x="110.125" y="202.62087070662875" width="28.75" height="257.37912929337125" fill="#14213d" stroke="none" rx="3" opacity="1.0"/><rect x="140.875" y="374.3732224896084" width="28.75" height="85.6267775103916" fill="#3a86ff" stroke="none" rx="3" opacity="1.0"/><rect x="171.625" y="390.58411726099325" width="28.75" height="69.41588273900678" fill="#f4a261" stroke="none" rx="3" opacity="1.0"/><text x="156.25" y="484" font-size="12" fill="#14213d" font-family="Helvetica,Arial,sans-serif" text-anchor="end" transform="rotate(-28 156.25 484)">cs</text><rect x="222.625" y="276.2765259243054" width="28.75" height="183.72347407569458" fill="#14213d" stroke="none" rx="3" opacity="1.0"/><rect x="253.375" y="358.66112448042" width="28.75" height="101.33887551957996" fill="#3a86ff" stroke="none" rx="3" opacity="1.0"/><rect x="284.125" y="388.505797418508" width="28.75" height="71.49420258149202" fill="#f4a261" stroke="none" rx="3" opacity="1.0"/><text x="268.75" y="484" font-size="12" fill="#14213d" font-family="Helvetica,Arial,sans-serif" text-anchor="end" transform="rotate(-28 268.75 484)">econ</text><rect x="335.125" y="202.87026908772697" width="28.75" height="257.12973091227303" fill="#14213d" stroke="none" rx="3" opacity="1.0"/><rect x="365.875" y="375.95274556989716" width="28.75" height="84.04725443010283" fill="#3a86ff" stroke="none" rx="3" opacity="1.0"/><rect x="396.625" y="385.5961496390287" width="28.75" height="74.40385036097135" fill="#f4a261" stroke="none" rx="3" opacity="1.0"/><text x="381.25" y="484" font-size="12" fill="#14213d" font-family="Helvetica,Arial,sans-serif" text-anchor="end" transform="rotate(-28 381.25 484)">eess</text><rect x="447.625" y="376.61780791949246" width="28.75" height="83.38219208050755" fill="#14213d" stroke="none" rx="3" opacity="1.0"/><rect x="478.375" y="437.8035440822577" width="28.75" height="22.196455917742288" fill="#3a86ff" stroke="none" rx="3" opacity="1.0"/><rect x="509.125" y="448.9433384379786" width="28.75" height="11.05666156202144" fill="#f4a261" stroke="none" rx="3" opacity="1.0"/><text x="493.75" y="484" font-size="12" fill="#14213d" font-family="Helvetica,Arial,sans-serif" text-anchor="end" transform="rotate(-28 493.75 484)">math</text><rect x="560.125" y="242.60774447604462" width="28.75" height="217.39225552395538" fill="#14213d" stroke="none" rx="3" opacity="1.0"/><rect x="590.875" y="339.29118354845764" width="28.75" height="120.70881645154233" fill="#3a86ff" stroke="none" rx="3" opacity="1.0"/><rect x="621.625" y="438.2192080507548" width="28.75" height="21.78079194924524" fill="#f4a261" stroke="none" rx="3" opacity="1.0"/><text x="606.25" y="484" font-size="12" fill="#14213d" font-family="Helvetica,Arial,sans-serif" text-anchor="end" transform="rotate(-28 606.25 484)">physics</text><rect x="672.625" y="125.80616932837455" width="28.75" height="334.19383067162545" fill="#14213d" stroke="none" rx="3" opacity="1.0"/><rect x="703.375" y="285.42113323124045" width="28.75" height="174.57886676875958" fill="#3a86ff" stroke="none" rx="3" opacity="1.0"/><rect x="734.125" y="380.02625246116827" width="28.75" height="79.97374753883176" fill="#f4a261" stroke="none" rx="3" opacity="1.0"/><text x="718.75" y="484" font-size="12" fill="#14213d" font-family="Helvetica,Arial,sans-serif" text-anchor="end" transform="rotate(-28 718.75 484)">q-bio</text><rect x="785.125" y="80.0" width="28.75" height="380.0" fill="#14213d" stroke="none" rx="3" opacity="1.0"/><rect x="815.875" y="302.2970903522205" width="28.75" height="157.70290964777948" fill="#3a86ff" stroke="none" rx="3" opacity="1.0"/><rect x="846.625" y="344.61168234521983" width="28.75" height="115.38831765478014" fill="#f4a261" stroke="none" rx="3" opacity="1.0"/><text x="831.25" y="484" font-size="12" fill="#14213d" font-family="Helvetica,Arial,sans-serif" text-anchor="end" transform="rotate(-28 831.25 484)">q-fin</text><rect x="897.625" y="296.22839641216365" width="28.75" height="163.77160358783635" fill="#14213d" stroke="none" rx="3" opacity="1.0"/><rect x="928.375" y="365.22861518267337" width="28.75" height="94.77138481732662" fill="#3a86ff" stroke="none" rx="3" opacity="1.0"/><rect x="959.125" y="414.11069787792604" width="28.75" height="45.88930212207394" fill="#f4a261" stroke="none" rx="3" opacity="1.0"/><text x="943.75" y="484" font-size="12" fill="#14213d" font-family="Helvetica,Arial,sans-serif" text-anchor="end" transform="rotate(-28 943.75 484)">stat</text><rect x="750" y="28" width="14" height="14" fill="#14213d" stroke="none" rx="2" opacity="1.0"/><text x="770" y="40" font-size="12" fill="#14213d" font-family="Helvetica,Arial,sans-serif" text-anchor="start" font-weight="normal">text</text><rect x="830" y="28" width="14" height="14" fill="#3a86ff" stroke="none" rx="2" opacity="1.0"/><text x="850" y="40" font-size="12" fill="#14213d" font-family="Helvetica,Arial,sans-serif" text-anchor="start" font-weight="normal">image</text><rect x="910" y="28" width="14" height="14" fill="#f4a261" stroke="none" rx="2" opacity="1.0"/><text x="930" y="40" font-size="12" fill="#14213d" font-family="Helvetica,Arial,sans-serif" text-anchor="start" font-weight="normal">table</text></svg>