<svg xmlns="http://www.w3.org/2000/svg" width="980" height="560" viewBox="0 0 980 560"><title>Top Modality Combinations</title><rect x="0" y="0" width="980" height="560" fill="#ffffff" stroke="none" rx="0" opacity="1.0"/><text x="100" y="36" font-size="24" fill="#14213d" font-family="Helvetica,Arial,sans-serif" text-anchor="start" font-weight="bold">Top Modality Combinations</text><line x1="100" y1="450.0" x2="940" y2="450.0" stroke="#d7e7fb" stroke-width="1"/><text x="88" y="455.0" font-size="12" fill="#4f6280" font-family="Helvetica,Arial,sans-serif" text-anchor="end" font-weight="normal">0</text><line x1="100" y1="355.0" x2="940" y2="355.0" stroke="#d7e7fb" stroke-width="1"/><text x="88" y="360.0" font-size="12" fill="#4f6280" font-family="Helvetica,Arial,sans-serif" text-anchor="end" font-weight="normal">4010</text><line x1="100" y1="260.0" x2="940" y2="260.0" stroke="#d7e7fb" stroke-width="1"/><text x="88" y="265.0" font-size="12" fill="#4f6280" font-family="Helvetica,Arial,sans-serif" text-anchor="end" font-weight="normal">8020</text><line x1="100" y1="165.0" x2="940" y2="165.0" stroke="#d7e7fb" stroke-width="1"/><text x="88" y="170.0" font-size="12" fill="#4f6280" font-family="Helvetica,Arial,sans-serif" text-anchor="end" font-weight="normal">12029</text><line x1="100" y1="70.0" x2="940" y2="70.0" stroke="#d7e7fb" stroke-width="1"/><text x="88" y="75.0" font-size="12" fill="#4f6280" font-family="Helvetica,Arial,sans-serif" text-anchor="end" font-weight="normal">16039</text><line x1="100" y1="-25.0" x2="940" y2="-25.0" stroke="#d7e7fb" stroke-width="1"/><text x="88" y="-20.0" font-size="12" fill="#4f6280" font-family="Helvetica,Arial,sans-serif" text-anchor="end" font-weight="normal">20049</text><line x1="100" y1="450" x2="940" y2="450" stroke="#14213d" stroke-width="1.5"/><rect x="123.8" y="70.0" width="92.4" height="380.0" fill="#38bdf8" stroke="none" rx="4" opacity="1.0"/><text x="170.0" y="62.0" font-size="12" fill="#14213d" font-family="Helvetica,Arial,sans-serif" text-anchor="middle" font-weight="normal">16039</text><text x="170.0" y="472" font-size="12" fill="#14213d" font-family="Helvetica,Arial,sans-serif" text-anchor="end" transform="rotate(-28 170.0 472)">text</text><rect x="263.8" y="337.2722738325332" width="92.4" height="112.7277261674668" fill="#38bdf8" stroke="none" rx="4" opacity="1.0"/><text x="310.0" y="329.2722738325332" font-size="12" fill="#14213d" font-family="Helvetica,Arial,sans-serif" text-anchor="middle" font-weight="normal">4758</text><text x="310.0" y="472" font-size="12" fill="#14213d" font-family="Helvetica,Arial,sans-serif" text-anchor="end" transform="rotate(-28 310.0 472)">image</text><rect x="403.8" y="352.9565434254006" width="92.4" height="97.04345657459942" fill="#38bdf8" stroke="none" rx="4" opacity="1.0"/><text x="450.0" y="344.9565434254006" font-size="12" fill="#14213d" font-family="Helvetica,Arial,sans-serif" text-anchor="middle" font-weight="normal">4096</text><text x="450.0" y="472" font-size="12" fill="#14213d" font-family="Helvetica,Arial,sans-serif" text-anchor="end" transform="rotate(-28 450.0 472)">image + text</text><rect x="543.8" y="392.11983290728847" width="92.4" height="57.88016709271152" fill="#38bdf8" stroke="none" rx="4" opacity="1.0"/><text x="590.0" y="384.11983290728847" font-size="12" fill="#14213d" font-family="Helvetica,Arial,sans-serif" text-anchor="middle" font-weight="normal">2443</text><text x="590.0" y="472" font-size="12" fill="#14213d" font-family="Helvetica,Arial,sans-serif" text-anchor="end" transform="rotate(-28 590.0 472)">table + text</text><rect x="683.8" y="398.30351019390235" width="92.4" height="51.69648980609764" fill="#38bdf8" stroke="none" rx="4" opacity="1.0"/><text x="730.0" y="390.30351019390235" font-size="12" fill="#14213d" font-family="Helvetica,Arial,sans-serif" text-anchor="middle" font-weight="normal">2182</text><text x="730.0" y="472" font-size="12" fill="#14213d" font-family="Helvetica,Arial,sans-serif" text-anchor="end" transform="rotate(-28 730.0 472)">table</text><rect x="823.8" y="420.1003803229628" width="92.4" height="29.899619677037222" fill="#38bdf8" stroke="none" rx="4" opacity="1.0"/><text x="870.0" y="412.1003803229628" font-size="12" fill="#14213d" font-family="Helvetica,Arial,sans-serif" text-anchor="middle" font-weight="normal">1262</text><text x="870.0" y="472" font-size="12" fill="#14213d" font-family="Helvetica,Arial,sans-serif" text-anchor="end" transform="rotate(-28 870.0 472)">image + table</text><text x="490.0" y="542" font-size="13" fill="#4f6280" font-family="Helvetica,Arial,sans-serif" text-anchor="middle" font-weight="normal">Combination</text></svg>