<svg xmlns="http://www.w3.org/2000/svg" width="1320" height="760" viewBox="0 0 1320 760"><title>Query × Answer Length Matrix</title><rect x="0" y="0" width="1320" height="760" fill="#fffdf7" stroke="none" rx="0" opacity="1.0"/><text x="24" y="60" font-size="28" fill="#14213d" font-family="Helvetica,Arial,sans-serif" text-anchor="start" font-weight="bold">Query × Answer Length Matrix</text><text x="24" y="112" font-size="24" fill="#14213d" font-family="Helvetica,Arial,sans-serif" text-anchor="start" font-weight="bold">Query \ Answer</text><text x="305.0" y="112" font-size="22" fill="#14213d" font-family="Helvetica,Arial,sans-serif" text-anchor="middle" font-weight="bold">&lt;=1</text><text x="475.0" y="112" font-size="22" fill="#14213d" font-family="Helvetica,Arial,sans-serif" text-anchor="middle" font-weight="bold">2</text><text x="645.0" y="112" font-size="22" fill="#14213d" font-family="Helvetica,Arial,sans-serif" text-anchor="middle" font-weight="bold">3-4</text><text x="815.0" y="112" font-size="22" fill="#14213d" font-family="Helvetica,Arial,sans-serif" text-anchor="middle" font-weight="bold">5-6</text><text x="985.0" y="112" font-size="22" fill="#14213d" font-family="Helvetica,Arial,sans-serif" text-anchor="middle" font-weight="bold">7-10</text><text x="1155.0" y="112" font-size="22" fill="#14213d" font-family="Helvetica,Arial,sans-serif" text-anchor="middle" font-weight="bold">&gt;10</text><text x="24" y="177.0" font-size="22" fill="#14213d" font-family="Helvetica,Arial,sans-serif" text-anchor="start" font-weight="normal">&lt;=10</text><line x1="24" y1="130" x2="1240" y2="130" stroke="#d6d3d1" stroke-width="1"/><rect x="220" y="140" width="162" height="60" fill="#f37625" stroke="none" rx="10" opacity="1.0"/><text x="305.0" y="177.0" font-size="22" fill="#ffffff" font-family="Helvetica,Arial,sans-serif" text-anchor="middle" font-weight="bold">4349</text><rect x="390" y="140" width="162" height="60" fill="#fca151" stroke="none" rx="10" opacity="1.0"/><text x="475.0" y="177.0" font-size="22" fill="#14213d" font-family="Helvetica,Arial,sans-serif" text-anchor="middle" font-weight="bold">3082</text><rect x="560" y="140" width="162" height="60" fill="#fb9946" stroke="none" rx="10" opacity="1.0"/><text x="645.0" y="177.0" font-size="22" fill="#14213d" font-family="Helvetica,Arial,sans-serif" text-anchor="middle" font-weight="bold">3358</text><rect x="730" y="140" width="162" height="60" fill="#fdc68a" stroke="none" rx="10" opacity="1.0"/><text x="815.0" y="177.0" font-size="22" fill="#14213d" font-family="Helvetica,Arial,sans-serif" text-anchor="middle" font-weight="bold">1682</text><rect x="900" y="140" width="162" height="60" fill="#fed3a2" stroke="none" rx="10" opacity="1.0"/><text x="985.0" y="177.0" font-size="22" fill="#14213d" font-family="Helvetica,Arial,sans-serif" text-anchor="middle" font-weight="bold">1115</text><rect x="1070" y="140" width="162" height="60" fill="#fff5e8" stroke="none" rx="10" opacity="1.0"/><text x="1155.0" y="177.0" font-size="22" fill="#14213d" font-family="Helvetica,Arial,sans-serif" text-anchor="middle" font-weight="bold">41</text><text x="24" y="255.0" font-size="22" fill="#14213d" font-family="Helvetica,Arial,sans-serif" text-anchor="start" font-weight="normal">11-15</text><line x1="24" y1="208" x2="1240" y2="208" stroke="#d6d3d1" stroke-width="1"/><rect x="220" y="218" width="162" height="60" fill="#9a3412" stroke="none" rx="10" opacity="1.0"/><text x="305.0" y="255.0" font-size="22" fill="#ffffff" font-family="Helvetica,Arial,sans-serif" text-anchor="middle" font-weight="bold">6759</text><rect x="390" y="218" width="162" height="60" fill="#fb9844" stroke="none" rx="10" opacity="1.0"/><text x="475.0" y="255.0" font-size="22" fill="#14213d" font-family="Helvetica,Arial,sans-serif" text-anchor="middle" font-weight="bold">3411</text><rect x="560" y="218" width="162" height="60" fill="#f98a35" stroke="none" rx="10" opacity="1.0"/><text x="645.0" y="255.0" font-size="22" fill="#ffffff" font-family="Helvetica,Arial,sans-serif" text-anchor="middle" font-weight="bold">3832</text><rect x="730" y="218" width="162" height="60" fill="#fdc487" stroke="none" rx="10" opacity="1.0"/><text x="815.0" y="255.0" font-size="22" fill="#14213d" font-family="Helvetica,Arial,sans-serif" text-anchor="middle" font-weight="bold">1738</text><rect x="900" y="218" width="162" height="60" fill="#fed3a2" stroke="none" rx="10" opacity="1.0"/><text x="985.0" y="255.0" font-size="22" fill="#14213d" font-family="Helvetica,Arial,sans-serif" text-anchor="middle" font-weight="bold">1129</text><rect x="1070" y="218" width="162" height="60" fill="#fff4e7" stroke="none" rx="10" opacity="1.0"/><text x="1155.0" y="255.0" font-size="22" fill="#14213d" font-family="Helvetica,Arial,sans-serif" text-anchor="middle" font-weight="bold">52</text><text x="24" y="333.0" font-size="22" fill="#14213d" font-family="Helvetica,Arial,sans-serif" text-anchor="start" font-weight="normal">16-20</text><line x1="24" y1="286" x2="1240" y2="286" stroke="#d6d3d1" stroke-width="1"/><rect x="220" y="296" width="162" height="60" fill="#fff1e1" stroke="none" rx="10" opacity="1.0"/><text x="305.0" y="333.0" font-size="22" fill="#14213d" font-family="Helvetica,Arial,sans-serif" text-anchor="middle" font-weight="bold">117</text><rect x="390" y="296" width="162" height="60" fill="#fff5e8" stroke="none" rx="10" opacity="1.0"/><text x="475.0" y="333.0" font-size="22" fill="#14213d" font-family="Helvetica,Arial,sans-serif" text-anchor="middle" font-weight="bold">37</text><rect x="560" y="296" width="162" height="60" fill="#fff5e8" stroke="none" rx="10" opacity="1.0"/><text x="645.0" y="333.0" font-size="22" fill="#14213d" font-family="Helvetica,Arial,sans-serif" text-anchor="middle" font-weight="bold">39</text><rect x="730" y="296" width="162" height="60" fill="#fff6eb" stroke="none" rx="10" opacity="1.0"/><text x="815.0" y="333.0" font-size="22" fill="#14213d" font-family="Helvetica,Arial,sans-serif" text-anchor="middle" font-weight="bold">11</text><rect x="900" y="296" width="162" height="60" fill="#fff6eb" stroke="none" rx="10" opacity="1.0"/><text x="985.0" y="333.0" font-size="22" fill="#14213d" font-family="Helvetica,Arial,sans-serif" text-anchor="middle" font-weight="bold">15</text><rect x="1070" y="296" width="162" height="60" fill="#fff7ed" stroke="none" rx="10" opacity="1.0"/><text x="1155.0" y="333.0" font-size="22" fill="#14213d" font-family="Helvetica,Arial,sans-serif" text-anchor="middle" font-weight="bold">1</text><text x="24" y="411.0" font-size="22" fill="#14213d" font-family="Helvetica,Arial,sans-serif" text-anchor="start" font-weight="normal">21-25</text><line x1="24" y1="364" x2="1240" y2="364" stroke="#d6d3d1" stroke-width="1"/><rect x="220" y="374" width="162" height="60" fill="#fff7ec" stroke="none" rx="10" opacity="1.0"/><text x="305.0" y="411.0" font-size="22" fill="#14213d" font-family="Helvetica,Arial,sans-serif" text-anchor="middle" font-weight="bold">5</text><rect x="390" y="374" width="162" height="60" fill="#fff7ed" stroke="none" rx="10" opacity="1.0"/><text x="475.0" y="411.0" font-size="22" fill="#14213d" font-family="Helvetica,Arial,sans-serif" text-anchor="middle" font-weight="bold">0</text><rect x="560" y="374" width="162" height="60" fill="#fff7ec" stroke="none" rx="10" opacity="1.0"/><text x="645.0" y="411.0" font-size="22" fill="#14213d" font-family="Helvetica,Arial,sans-serif" text-anchor="middle" font-weight="bold">4</text><rect x="730" y="374" width="162" height="60" fill="#fff7ed" stroke="none" rx="10" opacity="1.0"/><text x="815.0" y="411.0" font-size="22" fill="#14213d" font-family="Helvetica,Arial,sans-serif" text-anchor="middle" font-weight="bold">2</text><rect x="900" y="374" width="162" height="60" fill="#fff7ed" stroke="none" rx="10" opacity="1.0"/><text x="985.0" y="411.0" font-size="22" fill="#14213d" font-family="Helvetica,Arial,sans-serif" text-anchor="middle" font-weight="bold">1</text><rect x="1070" y="374" width="162" height="60" fill="#fff7ed" stroke="none" rx="10" opacity="1.0"/><text x="1155.0" y="411.0" font-size="22" fill="#14213d" font-family="Helvetica,Arial,sans-serif" text-anchor="middle" font-weight="bold">0</text><text x="24" y="489.0" font-size="22" fill="#14213d" font-family="Helvetica,Arial,sans-serif" text-anchor="start" font-weight="normal">26-30</text><line x1="24" y1="442" x2="1240" y2="442" stroke="#d6d3d1" stroke-width="1"/><rect x="220" y="452" width="162" height="60" fill="#fff7ed" stroke="none" rx="10" opacity="1.0"/><text x="305.0" y="489.0" font-size="22" fill="#14213d" font-family="Helvetica,Arial,sans-serif" text-anchor="middle" font-weight="bold">0</text><rect x="390" y="452" width="162" height="60" fill="#fff7ed" stroke="none" rx="10" opacity="1.0"/><text x="475.0" y="489.0" font-size="22" fill="#14213d" font-family="Helvetica,Arial,sans-serif" text-anchor="middle" font-weight="bold">0</text><rect x="560" y="452" width="162" height="60" fill="#fff7ed" stroke="none" rx="10" opacity="1.0"/><text x="645.0" y="489.0" font-size="22" fill="#14213d" font-family="Helvetica,Arial,sans-serif" text-anchor="middle" font-weight="bold">0</text><rect x="730" y="452" width="162" height="60" fill="#fff7ed" stroke="none" rx="10" opacity="1.0"/><text x="815.0" y="489.0" font-size="22" fill="#14213d" font-family="Helvetica,Arial,sans-serif" text-anchor="middle" font-weight="bold">0</text><rect x="900" y="452" width="162" height="60" fill="#fff7ed" stroke="none" rx="10" opacity="1.0"/><text x="985.0" y="489.0" font-size="22" fill="#14213d" font-family="Helvetica,Arial,sans-serif" text-anchor="middle" font-weight="bold">0</text><rect x="1070" y="452" width="162" height="60" fill="#fff7ed" stroke="none" rx="10" opacity="1.0"/><text x="1155.0" y="489.0" font-size="22" fill="#14213d" font-family="Helvetica,Arial,sans-serif" text-anchor="middle" font-weight="bold">0</text><text x="24" y="567.0" font-size="22" fill="#14213d" font-family="Helvetica,Arial,sans-serif" text-anchor="start" font-weight="normal">31-40</text><line x1="24" y1="520" x2="1240" y2="520" stroke="#d6d3d1" stroke-width="1"/><rect x="220" y="530" width="162" height="60" fill="#fff7ed" stroke="none" rx="10" opacity="1.0"/><text x="305.0" y="567.0" font-size="22" fill="#14213d" font-family="Helvetica,Arial,sans-serif" text-anchor="middle" font-weight="bold">0</text><rect x="390" y="530" width="162" height="60" fill="#fff7ed" stroke="none" rx="10" opacity="1.0"/><text x="475.0" y="567.0" font-size="22" fill="#14213d" font-family="Helvetica,Arial,sans-serif" text-anchor="middle" font-weight="bold">0</text><rect x="560" y="530" width="162" height="60" fill="#fff7ed" stroke="none" rx="10" opacity="1.0"/><text x="645.0" y="567.0" font-size="22" fill="#14213d" font-family="Helvetica,Arial,sans-serif" text-anchor="middle" font-weight="bold">0</text><rect x="730" y="530" width="162" height="60" fill="#fff7ed" stroke="none" rx="10" opacity="1.0"/><text x="815.0" y="567.0" font-size="22" fill="#14213d" font-family="Helvetica,Arial,sans-serif" text-anchor="middle" font-weight="bold">0</text><rect x="900" y="530" width="162" height="60" fill="#fff7ed" stroke="none" rx="10" opacity="1.0"/><text x="985.0" y="567.0" font-size="22" fill="#14213d" font-family="Helvetica,Arial,sans-serif" text-anchor="middle" font-weight="bold">0</text><rect x="1070" y="530" width="162" height="60" fill="#fff7ed" stroke="none" rx="10" opacity="1.0"/><text x="1155.0" y="567.0" font-size="22" fill="#14213d" font-family="Helvetica,Arial,sans-serif" text-anchor="middle" font-weight="bold">0</text><text x="24" y="645.0" font-size="22" fill="#14213d" font-family="Helvetica,Arial,sans-serif" text-anchor="start" font-weight="normal">&gt;40</text><line x1="24" y1="598" x2="1240" y2="598" stroke="#d6d3d1" stroke-width="1"/><rect x="220" y="608" width="162" height="60" fill="#fff7ed" stroke="none" rx="10" opacity="1.0"/><text x="305.0" y="645.0" font-size="22" fill="#14213d" font-family="Helvetica,Arial,sans-serif" text-anchor="middle" font-weight="bold">0</text><rect x="390" y="608" width="162" height="60" fill="#fff7ed" stroke="none" rx="10" opacity="1.0"/><text x="475.0" y="645.0" font-size="22" fill="#14213d" font-family="Helvetica,Arial,sans-serif" text-anchor="middle" font-weight="bold">0</text><rect x="560" y="608" width="162" height="60" fill="#fff7ed" stroke="none" rx="10" opacity="1.0"/><text x="645.0" y="645.0" font-size="22" fill="#14213d" font-family="Helvetica,Arial,sans-serif" text-anchor="middle" font-weight="bold">0</text><rect x="730" y="608" width="162" height="60" fill="#fff7ed" stroke="none" rx="10" opacity="1.0"/><text x="815.0" y="645.0" font-size="22" fill="#14213d" font-family="Helvetica,Arial,sans-serif" text-anchor="middle" font-weight="bold">0</text><rect x="900" y="608" width="162" height="60" fill="#fff7ed" stroke="none" rx="10" opacity="1.0"/><text x="985.0" y="645.0" font-size="22" fill="#14213d" font-family="Helvetica,Arial,sans-serif" text-anchor="middle" font-weight="bold">0</text><rect x="1070" y="608" width="162" height="60" fill="#fff7ed" stroke="none" rx="10" opacity="1.0"/><text x="1155.0" y="645.0" font-size="22" fill="#14213d" font-family="Helvetica,Arial,sans-serif" text-anchor="middle" font-weight="bold">0</text><line x1="24" y1="676" x2="1240" y2="676" stroke="#d6d3d1" stroke-width="1"/><line x1="204" y1="74" x2="204" y2="676" stroke="#d6d3d1" stroke-width="1"/></svg>