<svg xmlns="http://www.w3.org/2000/svg" width="1040" height="580" viewBox="0 0 1040 580"><title>Query and Answer Length Distribution</title><rect x="0" y="0" width="1040" height="580" fill="#fffdf7" stroke="none" rx="0" opacity="1.0"/><text x="100" y="36" font-size="24" fill="#14213d" font-family="Helvetica,Arial,sans-serif" text-anchor="start" font-weight="bold">Query and Answer Length Distribution</text><line x1="100" y1="460.0" x2="1000" y2="460.0" stroke="#e5e7eb" stroke-width="1"/><text x="88" y="465.0" font-size="12" fill="#6b7280" font-family="Helvetica,Arial,sans-serif" text-anchor="end" font-weight="normal">0</text><line x1="100" y1="365.0" x2="1000" y2="365.0" stroke="#e5e7eb" stroke-width="1"/><text x="88" y="370.0" font-size="12" fill="#6b7280" font-family="Helvetica,Arial,sans-serif" text-anchor="end" font-weight="normal">134</text><line x1="100" y1="270.0" x2="1000" y2="270.0" stroke="#e5e7eb" stroke-width="1"/><text x="88" y="275.0" font-size="12" fill="#6b7280" font-family="Helvetica,Arial,sans-serif" text-anchor="end" font-weight="normal">267</text><line x1="100" y1="175.0" x2="1000" y2="175.0" stroke="#e5e7eb" stroke-width="1"/><text x="88" y="180.0" font-size="12" fill="#6b7280" font-family="Helvetica,Arial,sans-serif" text-anchor="end" font-weight="normal">400</text><line x1="100" y1="80.0" x2="1000" y2="80.0" stroke="#e5e7eb" stroke-width="1"/><text x="88" y="85.0" font-size="12" fill="#6b7280" font-family="Helvetica,Arial,sans-serif" text-anchor="end" font-weight="normal">534</text><line x1="100" y1="460" x2="1000" y2="460" stroke="#14213d" stroke-width="1.5"/><rect x="111.57142857142858" y="433.67041198501875" width="50.714285714285715" height="26.329588014981272" fill="#14213d" stroke="none" rx="3" opacity="1.0"/><rect x="164.2857142857143" y="247.22846441947564" width="50.714285714285715" height="212.77153558052436" fill="#f4a261" stroke="none" rx="3" opacity="1.0"/><text x="164.2857142857143" y="484" font-size="12" fill="#14213d" font-family="Helvetica,Arial,sans-serif" text-anchor="end" transform="rotate(-28 164.2857142857143 484)">&lt;=10</text><rect x="240.14285714285717" y="282.80898876404495" width="50.714285714285715" height="177.19101123595505" fill="#14213d" stroke="none" rx="3" opacity="1.0"/><rect x="292.8571428571429" y="281.3857677902622" width="50.714285714285715" height="178.61423220973782" fill="#f4a261" stroke="none" rx="3" opacity="1.0"/><text x="292.8571428571429" y="484" font-size="12" fill="#14213d" font-family="Helvetica,Arial,sans-serif" text-anchor="end" transform="rotate(-28 292.8571428571429 484)">11-15</text><rect x="368.7142857142857" y="144.04494382022472" width="50.714285714285715" height="315.9550561797753" fill="#14213d" stroke="none" rx="3" opacity="1.0"/><rect x="421.42857142857144" y="80.0" width="50.714285714285715" height="380.0" fill="#f4a261" stroke="none" rx="3" opacity="1.0"/><text x="421.42857142857144" y="484" font-size="12" fill="#14213d" font-family="Helvetica,Arial,sans-serif" text-anchor="end" transform="rotate(-28 421.42857142857144 484)">16-20</text><rect x="497.28571428571433" y="106.32958801498125" width="50.714285714285715" height="353.67041198501875" fill="#14213d" stroke="none" rx="3" opacity="1.0"/><rect x="550.0" y="240.1123595505618" width="50.714285714285715" height="219.8876404494382" fill="#f4a261" stroke="none" rx="3" opacity="1.0"/><text x="550.0" y="484" font-size="12" fill="#14213d" font-family="Helvetica,Arial,sans-serif" text-anchor="end" transform="rotate(-28 550.0 484)">21-25</text><rect x="625.8571428571429" y="259.32584269662925" width="50.714285714285715" height="200.67415730337078" fill="#14213d" stroke="none" rx="3" opacity="1.0"/><rect x="678.5714285714286" y="297.04119850187266" width="50.714285714285715" height="162.95880149812734" fill="#f4a261" stroke="none" rx="3" opacity="1.0"/><text x="678.5714285714286" y="484" font-size="12" fill="#14213d" font-family="Helvetica,Arial,sans-serif" text-anchor="end" transform="rotate(-28 678.5714285714286 484)">26-30</text><rect x="754.4285714285714" y="382.4344569288389" width="50.714285714285715" height="77.56554307116104" fill="#14213d" stroke="none" rx="3" opacity="1.0"/><rect x="807.1428571428571" y="459.2883895131086" width="50.714285714285715" height="0.7116104868913857" fill="#f4a261" stroke="none" rx="3" opacity="1.0"/><text x="807.1428571428571" y="484" font-size="12" fill="#14213d" font-family="Helvetica,Arial,sans-serif" text-anchor="end" transform="rotate(-28 807.1428571428571 484)">31-40</text><rect x="883.0000000000001" y="456.44194756554305" width="50.714285714285715" height="3.5580524344569286" fill="#14213d" stroke="none" rx="3" opacity="1.0"/><rect x="935.7142857142858" y="460.0" width="50.714285714285715" height="0.0" fill="#f4a261" stroke="none" rx="3" opacity="1.0"/><text x="935.7142857142858" y="484" font-size="12" fill="#14213d" font-family="Helvetica,Arial,sans-serif" text-anchor="end" transform="rotate(-28 935.7142857142858 484)">&gt;40</text><rect x="750" y="28" width="14" height="14" fill="#14213d" stroke="none" rx="2" opacity="1.0"/><text x="770" y="40" font-size="12" fill="#14213d" font-family="Helvetica,Arial,sans-serif" text-anchor="start" font-weight="normal">query</text><rect x="830" y="28" width="14" height="14" fill="#f4a261" stroke="none" rx="2" opacity="1.0"/><text x="850" y="40" font-size="12" fill="#14213d" font-family="Helvetica,Arial,sans-serif" text-anchor="start" font-weight="normal">answer</text></svg>