<svg xmlns="http://www.w3.org/2000/svg" width="980" height="560" viewBox="0 0 980 560"><title>Samples per Category</title><rect x="0" y="0" width="980" height="560" fill="#fffdf7" stroke="none" rx="0" opacity="1.0"/><text x="100" y="36" font-size="24" fill="#14213d" font-family="Helvetica,Arial,sans-serif" text-anchor="start" font-weight="bold">Samples per Category</text><line x1="100" y1="450.0" x2="940" y2="450.0" stroke="#e5e7eb" stroke-width="1"/><text x="88" y="455.0" font-size="12" fill="#6b7280" font-family="Helvetica,Arial,sans-serif" text-anchor="end" font-weight="normal">0</text><line x1="100" y1="355.0" x2="940" y2="355.0" stroke="#e5e7eb" stroke-width="1"/><text x="88" y="360.0" font-size="12" fill="#6b7280" font-family="Helvetica,Arial,sans-serif" text-anchor="end" font-weight="normal">1571</text><line x1="100" y1="260.0" x2="940" y2="260.0" stroke="#e5e7eb" stroke-width="1"/><text x="88" y="265.0" font-size="12" fill="#6b7280" font-family="Helvetica,Arial,sans-serif" text-anchor="end" font-weight="normal">3142</text><line x1="100" y1="165.0" x2="940" y2="165.0" stroke="#e5e7eb" stroke-width="1"/><text x="88" y="170.0" font-size="12" fill="#6b7280" font-family="Helvetica,Arial,sans-serif" text-anchor="end" font-weight="normal">4712</text><line x1="100" y1="70.0" x2="940" y2="70.0" stroke="#e5e7eb" stroke-width="1"/><text x="88" y="75.0" font-size="12" fill="#6b7280" font-family="Helvetica,Arial,sans-serif" text-anchor="end" font-weight="normal">6283</text><line x1="100" y1="-25.0" x2="940" y2="-25.0" stroke="#e5e7eb" stroke-width="1"/><text x="88" y="-20.0" font-size="12" fill="#6b7280" font-family="Helvetica,Arial,sans-serif" text-anchor="end" font-weight="normal">7854</text><line x1="100" y1="-120.0" x2="940" y2="-120.0" stroke="#e5e7eb" stroke-width="1"/><text x="88" y="-115.0" font-size="12" fill="#6b7280" font-family="Helvetica,Arial,sans-serif" text-anchor="end" font-weight="normal">9424</text><line x1="100" y1="-215.0" x2="940" y2="-215.0" stroke="#e5e7eb" stroke-width="1"/><text x="88" y="-210.0" font-size="12" fill="#6b7280" font-family="Helvetica,Arial,sans-serif" text-anchor="end" font-weight="normal">10995</text><line x1="100" y1="450" x2="940" y2="450" stroke="#14213d" stroke-width="1.5"/><rect x="117.85" y="212.91580455196564" width="69.3" height="237.08419544803436" fill="#3a86ff" stroke="none" rx="4" opacity="1.0"/><text x="152.5" y="204.91580455196564" font-size="12" fill="#14213d" font-family="Helvetica,Arial,sans-serif" text-anchor="middle" font-weight="normal">3920</text><text x="152.5" y="472" font-size="12" fill="#14213d" font-family="Helvetica,Arial,sans-serif" text-anchor="end" transform="rotate(-28 152.5 472)">cs</text><rect x="222.85" y="245.51488142607036" width="69.3" height="204.48511857392964" fill="#3a86ff" stroke="none" rx="4" opacity="1.0"/><text x="257.5" y="237.51488142607036" font-size="12" fill="#14213d" font-family="Helvetica,Arial,sans-serif" text-anchor="middle" font-weight="normal">3381</text><text x="257.5" y="472" font-size="12" fill="#14213d" font-family="Helvetica,Arial,sans-serif" text-anchor="end" transform="rotate(-28 257.5 472)">econ</text><rect x="327.85" y="208.25879356995065" width="69.3" height="241.74120643004935" fill="#3a86ff" stroke="none" rx="4" opacity="1.0"/><text x="362.5" y="200.25879356995065" font-size="12" fill="#14213d" font-family="Helvetica,Arial,sans-serif" text-anchor="middle" font-weight="normal">3997</text><text x="362.5" y="472" font-size="12" fill="#14213d" font-family="Helvetica,Arial,sans-serif" text-anchor="end" transform="rotate(-28 362.5 472)">eess</text><rect x="432.85" y="377.6046474614038" width="69.3" height="72.39535253859621" fill="#3a86ff" stroke="none" rx="4" opacity="1.0"/><text x="467.5" y="369.6046474614038" font-size="12" fill="#14213d" font-family="Helvetica,Arial,sans-serif" text-anchor="middle" font-weight="normal">1197</text><text x="467.5" y="472" font-size="12" fill="#14213d" font-family="Helvetica,Arial,sans-serif" text-anchor="end" transform="rotate(-28 467.5 472)">math</text><rect x="537.85" y="232.572019735795" width="69.3" height="217.427980264205" fill="#3a86ff" stroke="none" rx="4" opacity="1.0"/><text x="572.5" y="224.572019735795" font-size="12" fill="#14213d" font-family="Helvetica,Arial,sans-serif" text-anchor="middle" font-weight="normal">3595</text><text x="572.5" y="472" font-size="12" fill="#14213d" font-family="Helvetica,Arial,sans-serif" text-anchor="end" transform="rotate(-28 572.5 472)">physics</text><rect x="642.85" y="119.95702689797866" width="69.3" height="330.04297310202134" fill="#3a86ff" stroke="none" rx="4" opacity="1.0"/><text x="677.5" y="111.95702689797866" font-size="12" fill="#14213d" font-family="Helvetica,Arial,sans-serif" text-anchor="middle" font-weight="normal">5457</text><text x="677.5" y="472" font-size="12" fill="#14213d" font-family="Helvetica,Arial,sans-serif" text-anchor="end" transform="rotate(-28 677.5 472)">q-bio</text><rect x="747.85" y="70.0" width="69.3" height="380.0" fill="#3a86ff" stroke="none" rx="4" opacity="1.0"/><text x="782.5" y="62.0" font-size="12" fill="#14213d" font-family="Helvetica,Arial,sans-serif" text-anchor="middle" font-weight="normal">6283</text><text x="782.5" y="472" font-size="12" fill="#14213d" font-family="Helvetica,Arial,sans-serif" text-anchor="end" transform="rotate(-28 782.5 472)">q-fin</text><rect x="852.85" y="271.5820467929333" width="69.3" height="178.4179532070667" fill="#3a86ff" stroke="none" rx="4" opacity="1.0"/><text x="887.5" y="263.5820467929333" font-size="12" fill="#14213d" font-family="Helvetica,Arial,sans-serif" text-anchor="middle" font-weight="normal">2950</text><text x="887.5" y="472" font-size="12" fill="#14213d" font-family="Helvetica,Arial,sans-serif" text-anchor="end" transform="rotate(-28 887.5 472)">stat</text><text x="490.0" y="542" font-size="13" fill="#6b7280" font-family="Helvetica,Arial,sans-serif" text-anchor="middle" font-weight="normal">Category</text></svg>